<svg width="92" height="86" viewBox="0 0 92 86" fill="none" xmlns="http://www.w3.org/2000/svg">
<path d="M40.799 29.3944C31.7586 37.2628 18.7923 27.0108 10.8221 35.9622C-2.68319 51.1302 25.6023 73.8144 45.9029 74.3718C66.5342 74.9383 87.2656 56.9117 82.9851 36.7134C79.7019 21.2213 64.6679 3.35876 51.1525 11.5997C44.2891 15.7846 46.8629 24.1167 40.799 29.3944Z" fill="#FCF43D"/>
<path d="M66.3125 32.9375V36.4491C66.3126 41.1346 65.2858 45.7633 63.3043 50.0092C62.0785 52.6357 60.1804 54.8915 57.8022 56.5483C55.424 58.205 52.6502 59.2039 49.7617 59.4436C46.8732 59.6833 43.9727 59.1554 41.3539 57.9133C38.7352 56.6712 36.4912 54.7591 34.8492 52.3706L32.3948 48.802L16.375 25.5H13.1875V8.5C14.1381 8.49955 15.0686 8.77302 15.8678 9.28768C16.667 9.80233 17.301 10.5364 17.6938 11.402L21.6875 20.1875L41.4394 40.7628L47.1875 46.75L50.2568 32.9375H66.3125Z" fill="#FFCEB6"/>
<path d="M66.3125 20.1875V32.9375H58.875V30.8125H57.8125C56.6854 30.8124 55.6045 30.3646 54.8075 29.5676C54.0105 28.7706 53.5626 27.6896 53.5625 26.5625V22.3125C53.5616 21.4751 53.7259 20.6457 54.0459 19.8718C54.366 19.098 54.8355 18.3948 55.4277 17.8027C56.0198 17.2105 56.723 16.741 57.4968 16.4209C58.2707 16.1009 59.1001 15.9366 59.9375 15.9375H62.0625C63.1896 15.9376 64.2706 16.3855 65.0676 17.1825C65.8646 17.9795 66.3124 19.0604 66.3125 20.1875Z" fill="#FFCEB6"/>
<path d="M66.3125 32.9375V36.4491C66.3126 41.1346 65.2858 45.7633 63.3043 50.0092C62.7636 51.1677 62.0896 52.2593 61.2962 53.2618L47.1875 46.75L50.2568 32.9375H66.3125Z" fill="#548AFF"/>
<path d="M66.3125 20.1875V27.625H63.125L58.875 23.375V20.1875H53.9251C54.3651 18.9445 55.1794 17.8685 56.2561 17.1074C57.3329 16.3463 58.619 15.9376 59.9375 15.9375H62.0625C63.1896 15.9376 64.2706 16.3855 65.0676 17.1825C65.8646 17.9794 66.3124 19.0604 66.3125 20.1875Z" fill="#B1712C"/>
<path d="M61.2962 53.2618C59.6984 55.2801 57.6492 56.8951 55.3134 57.977C52.9776 59.0588 50.4205 59.5773 47.8478 59.4906C45.2751 59.4039 42.7587 58.7145 40.501 57.4779C38.2433 56.2412 36.3075 54.4919 34.8492 52.3706L32.3948 48.802L41.4394 40.7628L47.1875 46.75L61.2962 53.2618Z" fill="#FFC431"/>
<path d="M21.6875 20.1875L16.375 25.5H13.1875V8.5C14.1381 8.49955 15.0686 8.77302 15.8678 9.28768C16.667 9.80233 17.301 10.5364 17.6938 11.402L21.6875 20.1875Z" fill="#D1E4FF"/>
<path d="M69.5 15.9375H69.5C70.909 15.9375 72.2602 16.4972 73.2565 17.4935C74.2528 18.4898 74.8125 19.841 74.8125 21.25V37.1875H74.8125C72.5582 37.1875 70.3961 36.292 68.8021 34.6979C67.208 33.1039 66.3125 30.9418 66.3125 28.6875V19.125C66.3125 18.2796 66.6483 17.4689 67.2461 16.8711C67.8439 16.2733 68.6546 15.9375 69.5 15.9375Z" fill="#A36522"/>
<path d="M56.4922 31.6172L38.9453 14.0703C38.5267 13.6517 38.0298 13.3197 37.4829 13.0931C36.936 12.8666 36.3498 12.75 35.7578 12.75C35.1658 12.75 34.5797 12.8666 34.0327 13.0931C33.4858 13.3197 32.9889 13.6517 32.5703 14.0703C32.1517 14.4889 31.8197 14.9858 31.5931 15.5327C31.3666 16.0797 31.25 16.6658 31.25 17.2578C31.25 17.8498 31.3666 18.436 31.5931 18.9829C31.8197 19.5298 32.1517 20.0267 32.5703 20.4453L50.1172 37.9922C50.5358 38.4108 51.0327 38.7428 51.5796 38.9694C52.1265 39.1959 52.7127 39.3125 53.3047 39.3125H53.3047C54.5002 39.3125 55.6468 38.8376 56.4922 37.9922C57.3376 37.1468 57.8125 36.0002 57.8125 34.8047V34.8047C57.8125 33.6091 57.3376 32.4626 56.4922 31.6172Z" fill="#FFCEB6"/>
<path d="M69.5 14.875C68.8215 14.8752 68.1529 15.0381 67.5503 15.3498C66.9476 15.6616 66.4284 16.1133 66.0362 16.6669C65.5388 16.1036 64.9272 15.6525 64.2421 15.3435C63.557 15.0346 62.814 14.8749 62.0625 14.875H59.9375C57.9656 14.8772 56.0752 15.6615 54.6809 17.0559C53.2865 18.4502 52.5022 20.3406 52.5 22.3125V26.1224L39.6966 13.319C38.6515 12.2766 37.2354 11.6917 35.7593 11.6927C34.2832 11.6936 32.8679 12.2804 31.8242 13.3242C30.7804 14.3679 30.1936 15.7832 30.1927 17.2593C30.1917 18.7354 30.7766 20.1515 31.819 21.1966L48.1488 37.5263L46.5805 44.5835L22.5797 19.5826L18.6612 10.9621C18.1822 9.91206 17.4117 9.0217 16.4414 8.39687C15.471 7.77205 14.3416 7.43906 13.1875 7.4375C13.048 7.4375 12.9098 7.46498 12.7809 7.51837C12.652 7.57176 12.5349 7.65003 12.4362 7.74869C12.3375 7.84735 12.2593 7.96448 12.2059 8.09339C12.1525 8.2223 12.125 8.36047 12.125 8.5V25.5C12.125 25.6395 12.1525 25.7777 12.2059 25.9066C12.2593 26.0355 12.3375 26.1526 12.4362 26.2513C12.5349 26.35 12.652 26.4282 12.7809 26.4816C12.9098 26.535 13.048 26.5625 13.1875 26.5625H15.8161L33.9734 52.9731C35.5374 55.2479 37.6175 57.1204 40.0437 58.4375H27V60.5625H68.4375V58.4375H56.7379C60.0368 56.6519 62.6758 53.855 64.2671 50.458C66.3074 46.0692 67.3679 41.2888 67.375 36.4489V34.6886C68.2697 35.8003 69.4023 36.6974 70.6894 37.3137C71.9765 37.93 73.3854 38.25 74.8125 38.25C74.952 38.25 75.0902 38.2225 75.2191 38.1691C75.348 38.1157 75.4651 38.0375 75.5638 37.9388C75.6625 37.8401 75.7407 37.723 75.7941 37.5941C75.8475 37.4652 75.875 37.327 75.875 37.1875V21.25C75.8731 19.5598 75.2008 17.9394 74.0057 16.7443C72.8106 15.5492 71.1902 14.8769 69.5 14.875ZM58.875 29.75H57.8125C56.9674 29.7491 56.1572 29.4129 55.5596 28.8154C54.9621 28.2178 54.6259 27.4076 54.625 26.5625V22.3125C54.6249 21.9556 54.6607 21.5997 54.7319 21.25H57.8125V23.375C57.8125 23.5145 57.84 23.6527 57.8934 23.7816C57.9468 23.9105 58.025 24.0276 58.1237 24.1263L62.3737 28.3763C62.4724 28.475 62.5895 28.5532 62.7184 28.6066C62.8473 28.66 62.9855 28.6875 63.125 28.6875H65.25V31.875H59.9375V30.8125C59.9375 30.673 59.91 30.5348 59.8566 30.4059C59.8032 30.277 59.725 30.1599 59.6263 30.0612C59.5276 29.9625 59.4105 29.8843 59.2816 29.8309C59.1527 29.7775 59.0145 29.75 58.875 29.75ZM59.9375 17H62.0625C62.9076 17.0009 63.7178 17.3371 64.3154 17.9346C64.9129 18.5322 65.2491 19.3424 65.25 20.1875V26.5625H63.5651L59.9375 22.9349V20.1875C59.9375 20.048 59.91 19.9098 59.8566 19.7809C59.8032 19.652 59.725 19.5349 59.6263 19.4362C59.5276 19.3375 59.4105 19.2593 59.2816 19.2059C59.1527 19.1525 59.0145 19.125 58.875 19.125H55.6904C56.1847 18.4653 56.8258 17.9298 57.563 17.561C58.3002 17.1921 59.1132 17.0001 59.9375 17ZM32.3125 17.2578C32.3125 16.5764 32.5146 15.9103 32.8932 15.3437C33.2717 14.7771 33.8098 14.3355 34.4393 14.0748C35.0689 13.814 35.7616 13.7458 36.4299 13.8787C37.0983 14.0116 37.7122 14.3397 38.194 14.8216L55.7409 32.3685C56.3866 33.0147 56.7491 33.8909 56.7489 34.8044C56.7487 35.7179 56.3857 36.5939 55.7398 37.2398C55.0939 37.8857 54.2179 38.2487 53.3044 38.2489C52.3909 38.2491 51.5147 37.8866 50.8685 37.2409L33.3216 19.694C33.0006 19.3748 32.7462 18.9951 32.573 18.577C32.3998 18.1588 32.3113 17.7104 32.3125 17.2578ZM39.9082 40.7016L32.5886 47.208L17.7512 25.6263L21.672 21.7056L39.9082 40.7016ZM14.25 9.7112C14.7924 9.86589 15.2948 10.1365 15.7224 10.5043C16.15 10.8721 16.4927 11.3283 16.7267 11.8415L20.4155 19.9568L15.9349 24.4375H14.25V9.7112ZM48.4011 58.4375C45.9057 58.4378 43.4476 57.8309 41.2391 56.6691C39.0306 55.5074 37.1379 53.8257 35.7244 51.7692L33.8019 48.9727L41.381 42.2357L46.421 47.4858C46.5131 47.5812 46.6222 47.6585 46.7427 47.7136L46.7422 47.7147L59.5622 53.6316C58.1237 55.146 56.3928 56.3527 54.4743 57.1788C52.5559 58.0048 50.4898 58.433 48.4011 58.4375ZM65.25 36.4489C65.2434 40.9783 64.2509 45.4521 62.3414 49.5594C61.953 50.3916 61.4903 51.1869 60.9587 51.9358L48.4105 46.1443L49.9434 39.2463C50.7699 39.8719 51.7545 40.2544 52.7865 40.3508C53.8186 40.4473 54.857 40.2539 55.7851 39.7923C56.7132 39.3308 57.4941 38.6195 58.04 37.7383C58.5859 36.8572 58.875 35.8412 58.875 34.8047C58.8749 34.5354 58.8556 34.2665 58.8172 34H65.25V36.4489ZM73.75 36.0493C71.9808 35.7915 70.3633 34.906 69.1929 33.5544C68.0225 32.2028 67.3773 30.4754 67.375 28.6875V19.125C67.3756 18.5616 67.5997 18.0215 67.9981 17.6231C68.3965 17.2247 68.9366 17.0006 69.5 17C70.6268 17.0013 71.7071 17.4494 72.5038 18.2462C73.3006 19.0429 73.7487 20.1232 73.75 21.25V36.0493Z" fill="black"/>
<path d="M24.875 58.4375H22.75V60.5625H24.875V58.4375Z" fill="black"/>
<path d="M72.6875 58.4375H70.5625V60.5625H72.6875V58.4375Z" fill="black"/>
</svg>
